<svg xmlns="http://www.w3.org/2000/svg" width="13.879" height="13.874" viewBox="0 0 13.879 13.874">
  <path id="Path_812" data-name="Path 812" d="M1.045,13.874a1.016,1.016,0,0,1-.742-.3,1.014,1.014,0,0,1-.3-.742V2.836a1.014,1.014,0,0,1,.3-.742,1.016,1.016,0,0,1,.742-.3H7.618L2.9,6.536v4.433H7.338l4.748-4.741v6.6a1.039,1.039,0,0,1-1.047,1.046ZM4.534,9.342V7.192L9.726,2,11.9,4.11,6.681,9.342Zm8.057-5.928L10.424,1.3,11.44.285A.967.967,0,0,1,12.17,0a1.034,1.034,0,0,1,.744.317l.657.647a1.064,1.064,0,0,1,.307.753.976.976,0,0,1-.328.732l-.959.966" transform="translate(0.001 0)" fill="#6d6d6d"/>
</svg>
