<svg xmlns="http://www.w3.org/2000/svg" width="14.022" height="14.022" viewBox="0 0 14.022 14.022">
  <g id="Icon_feather-copy" data-name="Icon feather-copy" transform="translate(-2 -2)">
    <path id="Path_1616" data-name="Path 1616" d="M14.7,13.5h5.41a1.2,1.2,0,0,1,1.2,1.2v5.41a1.2,1.2,0,0,1-1.2,1.2H14.7a1.2,1.2,0,0,1-1.2-1.2V14.7A1.2,1.2,0,0,1,14.7,13.5Z" transform="translate(-6.292 -6.292)" fill="none" stroke="#6d6d6d" stroke-linecap="round" stroke-linejoin="round" stroke-width="2"/>
    <path id="Path_1617" data-name="Path 1617" d="M4.8,10.815H4.2A1.2,1.2,0,0,1,3,9.612V4.2A1.2,1.2,0,0,1,4.2,3h5.41a1.2,1.2,0,0,1,1.2,1.2v.6" fill="none" stroke="#6d6d6d" stroke-linecap="round" stroke-linejoin="round" stroke-width="2"/>
  </g>
</svg>
