<svg xmlns="http://www.w3.org/2000/svg" width="11.066" height="13.667" viewBox="0 0 11.066 13.667">
  <path id="Icon_weather-direction-up" data-name="Icon weather-direction-up" d="M11.94,11.34a.923.923,0,0,0,.372.777,1.416,1.416,0,0,0,.973.311,1.326,1.326,0,0,0,.962-.319l1.815-1.416v8.891a.878.878,0,0,0,.394.76,1.543,1.543,0,0,0,1.006.293,1.5,1.5,0,0,0,.973-.276.969.969,0,0,0,.437-.76V10.71l1.793,1.416a1.482,1.482,0,0,0,.962.319,1.539,1.539,0,0,0,.984-.311.937.937,0,0,0,.394-.768.914.914,0,0,0-.437-.734l-4.09-3.315a1.834,1.834,0,0,0-1.006-.345,1.657,1.657,0,0,0-1.006.354l-4.1,3.289A.847.847,0,0,0,11.94,11.34Z" transform="translate(-11.939 -6.972)" fill="#6d6d6d"/>
</svg>
