<svg xmlns="http://www.w3.org/2000/svg" xmlns:xlink="http://www.w3.org/1999/xlink" width="12.8" height="16" viewBox="0 0 12.8 16">
  <defs>
    <clipPath id="clip-path">
      <rect id="Rectangle_1165" data-name="Rectangle 1165" width="12.8" height="16" fill="#6d6d6d"/>
    </clipPath>
  </defs>
  <g id="Group_1286" data-name="Group 1286" clip-path="url(#clip-path)">
    <path id="Path_1108" data-name="Path 1108" d="M3.18,12.6H9.62V11.4H3.18Zm0-3.4H9.62V8H3.18ZM1.2,16a1.151,1.151,0,0,1-.84-.36A1.151,1.151,0,0,1,0,14.8V1.2A1.151,1.151,0,0,1,.36.36,1.151,1.151,0,0,1,1.2,0H8.42L12.8,4.38V14.8A1.23,1.23,0,0,1,11.6,16ZM7.82,4.92H11.6L7.82,1.2Z" fill="#6d6d6d"/>
  </g>
</svg>
