<svg xmlns="http://www.w3.org/2000/svg" width="15.6" height="17.457" viewBox="0 0 15.6 17.457">
  <path id="Path_1154" data-name="Path 1154" d="M81.319,16a1.654,1.654,0,0,1-1.667-1.667v-1.86h2.8V0L83.6.8,84.785,0l1.189.8L87.161,0l1.186.8L89.534,0l1.187.8L91.911,0,93.1.8,94.251,0V14.333A1.659,1.659,0,0,1,92.6,16H81.319Zm11.271-.7a.929.929,0,0,0,.685-.275.94.94,0,0,0,.276-.695V1.257h-10.4V12.471H91.63v1.862a.941.941,0,0,0,.276.695.93.93,0,0,0,.686.275M84.543,3.71H89.4v.7H84.543Zm0,2.886H89.4v.7H84.543Zm6.95-1.942a.594.594,0,1,1,.416-.178.573.573,0,0,1-.416.178m0,2.824a.607.607,0,1,1,.416-.178.573.573,0,0,1-.416.178" transform="translate(-79.152 0.957)" fill="#6d6d6d" stroke="rgba(0,0,0,0)" stroke-width="1"/>
</svg>
