<svg xmlns="http://www.w3.org/2000/svg" width="22.426" height="25.034" viewBox="0 0 22.426 25.034">
  <path id="Path_1657" data-name="Path 1657" d="M16.222,18.8a1.952,1.952,0,0,0,1.454-.615,2,2,0,0,0,.6-1.45,2.071,2.071,0,0,0-2.048-2.049,2.018,2.018,0,0,0-1.451.6,1.937,1.937,0,0,0-.614,1.447,2.088,2.088,0,0,0,2.06,2.071M16.2,22.88a4.308,4.308,0,0,0,1.987-.455,3.985,3.985,0,0,0,1.475-1.3,7.175,7.175,0,0,0-1.671-.7,6.663,6.663,0,0,0-1.772-.235,6.866,6.866,0,0,0-1.791.235,6.493,6.493,0,0,0-1.655.7,4.03,4.03,0,0,0,1.458,1.3,4.2,4.2,0,0,0,1.969.455m-6.83,1.069A12.535,12.535,0,0,1,2.685,19.1,13.951,13.951,0,0,1,0,10.65V3.5L9.371,0l9.37,3.5v8.238l-.527-.174a4.313,4.313,0,0,0-.5-.135V4.186L9.371,1.128,1.03,4.186V10.65A12.91,12.91,0,0,0,1.8,15.168a13.8,13.8,0,0,0,2.027,3.7,12.65,12.65,0,0,0,2.837,2.707,10.045,10.045,0,0,0,3.223,1.5l.077-.026c.065.062.146.149.242.26s.173.2.232.255a3.463,3.463,0,0,1-.546.225l-.52.159M16.263,24a5.149,5.149,0,0,1-5.155-5.151,5.151,5.151,0,0,1,5.172-5.192,4.95,4.95,0,0,1,3.636,1.511,5.193,5.193,0,0,1,0,7.322A4.973,4.973,0,0,1,16.263,24" transform="translate(0.5 0.534)" fill="#0a0a0a" stroke="#000" stroke-width="1"/>
</svg>
