<svg xmlns="http://www.w3.org/2000/svg" width="21.976" height="22.85" viewBox="0 0 21.976 22.85">
  <g id="auction-svgrepo-com" transform="translate(-2.048 -2)">
    <path id="Path_1650" data-name="Path 1650" d="M4.877,12.884,13.535,4.19a.761.761,0,0,1,1.079,0l4.81,4.83a.768.768,0,0,1,0,1.083L10.766,18.8a.761.761,0,0,1-1.079,0l-4.81-4.83A.768.768,0,0,1,4.877,12.884ZM3.493,15.358a2.74,2.74,0,0,1,0-3.864L12.15,2.8A2.713,2.713,0,0,1,16,2.8l4.81,4.83a2.74,2.74,0,0,1,0,3.864L19.09,13.219l3.853,3.869a3.7,3.7,0,0,1-5.221,5.243l-3.853-3.869L12.15,20.187a2.713,2.713,0,0,1-3.848,0Zm11.76,1.714,3.853,3.869a1.729,1.729,0,0,0,2.452,0,1.746,1.746,0,0,0,0-2.462l-3.853-3.869Z" transform="translate(0 0)" fill="#016815" fill-rule="evenodd"/>
    <path id="Path_1651" data-name="Path 1651" d="M2.9,21.1H7.623" transform="translate(0 2.898)" fill="none" stroke="#016815" stroke-linecap="round" stroke-width="1.7"/>
  </g>
</svg>
