<svg id="Group_608" data-name="Group 608" xmlns="http://www.w3.org/2000/svg" xmlns:xlink="http://www.w3.org/1999/xlink" width="9.975" height="16" viewBox="0 0 9.975 16">
  <defs>
    <clipPath id="clip-path">
      <rect id="Rectangle_499" data-name="Rectangle 499" width="9.975" height="16" fill="#d5d8de"/>
    </clipPath>
  </defs>
  <g id="Group_334" data-name="Group 334" clip-path="url(#clip-path)">
    <path id="Path_247" data-name="Path 247" d="M1.96,16a1.876,1.876,0,0,1-1.385-.582A1.92,1.92,0,0,1,0,14.018a1.885,1.885,0,0,1,.581-1.393,1.913,1.913,0,0,1,1.4-.575,1.9,1.9,0,0,1,1.385.582,1.9,1.9,0,0,1,.588,1.4,1.874,1.874,0,0,1-.59,1.393A1.939,1.939,0,0,1,1.96,16m6.025,0A1.876,1.876,0,0,1,6.6,15.418a1.92,1.92,0,0,1-.575-1.4,1.885,1.885,0,0,1,.581-1.393,1.96,1.96,0,0,1,2.781.007,1.9,1.9,0,0,1,.588,1.4,1.874,1.874,0,0,1-.59,1.393,1.939,1.939,0,0,1-1.4.575M1.96,9.975A1.928,1.928,0,0,1,.575,9.423,1.885,1.885,0,0,1,0,8,1.892,1.892,0,0,1,.581,6.6a1.905,1.905,0,0,1,1.4-.579,1.9,1.9,0,0,1,1.385.581A1.891,1.891,0,0,1,3.95,8a1.859,1.859,0,0,1-.59,1.423,1.982,1.982,0,0,1-1.4.55m6.025,0A1.928,1.928,0,0,1,6.6,9.423,1.885,1.885,0,0,1,6.025,8,1.98,1.98,0,0,1,8,6.025,2,2,0,0,1,9.975,8a1.859,1.859,0,0,1-.59,1.423,1.982,1.982,0,0,1-1.4.55M1.96,3.95A1.876,1.876,0,0,1,.575,3.368,1.918,1.918,0,0,1,0,1.968,1.885,1.885,0,0,1,.581.575,1.913,1.913,0,0,1,1.977,0,1.9,1.9,0,0,1,3.362.582a1.9,1.9,0,0,1,.588,1.4,1.874,1.874,0,0,1-.59,1.393,1.939,1.939,0,0,1-1.4.575m6.025,0A1.876,1.876,0,0,1,6.6,3.368a1.918,1.918,0,0,1-.575-1.4A1.885,1.885,0,0,1,6.606.575,1.96,1.96,0,0,1,9.387.582a1.9,1.9,0,0,1,.588,1.4,1.874,1.874,0,0,1-.59,1.393,1.939,1.939,0,0,1-1.4.575" fill="#d5d8de"/>
  </g>
</svg>
