<svg id="Group_620" data-name="Group 620" xmlns="http://www.w3.org/2000/svg" xmlns:xlink="http://www.w3.org/1999/xlink" width="16.041" height="15.998" viewBox="0 0 16.041 15.998">
  <defs>
    <clipPath id="clip-path">
      <rect id="Rectangle_540" data-name="Rectangle 540" width="16.041" height="15.998" transform="translate(0 0)" fill="#6d6d6d"/>
    </clipPath>
  </defs>
  <g id="Group_383" data-name="Group 383" clip-path="url(#clip-path)">
    <path id="Path_276" data-name="Path 276" d="M.812,14.8V4.893a.882.882,0,0,1-.548-.4A1.277,1.277,0,0,1,0,3.716V1.157A1.12,1.12,0,0,1,.355.365,1.117,1.117,0,0,1,1.178,0H14.883a1.106,1.106,0,0,1,.792.365,1.107,1.107,0,0,1,.366.792V3.716a1.312,1.312,0,0,1-.254.781.844.844,0,0,1-.538.4v9.9a1.156,1.156,0,0,1-.366.822,1.11,1.11,0,0,1-.812.376H1.97a1.069,1.069,0,0,1-.813-.376A1.191,1.191,0,0,1,.812,14.8M14.883,1.157H1.177V3.715H14.883ZM5.624,9.1h4.812V7.939H5.624Z" fill="#6d6d6d"/>
  </g>
</svg>
