<svg xmlns="http://www.w3.org/2000/svg" width="14.52" height="16" viewBox="0 0 14.52 16">
  <path id="Path_873" data-name="Path 873" d="M2.1,16a2.025,2.025,0,0,1-1.488-.612A2.025,2.025,0,0,1,0,13.9V11.4H2.54V0l1.2,1.2L4.932,0l1.2,1.2L7.324,0l1.2,1.2L9.72,0l1.2,1.2L12.12,0l1.2,1.2L14.52,0V13.9a2.091,2.091,0,0,1-2.1,2.1Zm10.29-1.2a.833.833,0,0,0,.63-.25.9.9,0,0,0,.24-.65V1.68H3.8V12.4h7.8v1.5a1.01,1.01,0,0,0,.2.65.71.71,0,0,0,.59.25M4.86,3.56h4.8v1.2H4.86Zm0,2.68h4.8v1.2H4.86Zm6.66-1.48a.594.594,0,0,1-.42-1.02.594.594,0,1,1,.84.84.576.576,0,0,1-.42.18m0,2.58a.615.615,0,1,1,.42-.18.576.576,0,0,1-.42.18" fill="#6d6d6d"/>
</svg>
