<svg id="Group_623" data-name="Group 623" xmlns="http://www.w3.org/2000/svg" xmlns:xlink="http://www.w3.org/1999/xlink" width="7.825" height="16" viewBox="0 0 7.825 16">
  <defs>
    <clipPath id="clip-path">
      <rect id="Rectangle_538" data-name="Rectangle 538" width="7.825" height="16" fill="#6d6d6d"/>
    </clipPath>
  </defs>
  <g id="Group_379" data-name="Group 379" clip-path="url(#clip-path)">
    <path id="Path_272" data-name="Path 272" d="M3.244,16V14.133a4.02,4.02,0,0,1-2.078-.966A4.2,4.2,0,0,1,0,11.289l1.244-.511a3.24,3.24,0,0,0,1.089,1.589,2.808,2.808,0,0,0,1.711.522A2.789,2.789,0,0,0,5.8,12.356a1.753,1.753,0,0,0,.688-1.467,1.9,1.9,0,0,0-.611-1.511,7.1,7.1,0,0,0-2.3-1.089A5.5,5.5,0,0,1,1.188,6.933,2.977,2.977,0,0,1,.4,4.822a2.838,2.838,0,0,1,.788-2.044,3.123,3.123,0,0,1,2.056-.934V0H4.577V1.844A3.446,3.446,0,0,1,6.3,2.5,3.491,3.491,0,0,1,7.4,3.889l-1.245.533a2.2,2.2,0,0,0-.833-1.033,2.568,2.568,0,0,0-1.367-.322,2.577,2.577,0,0,0-1.622.466,1.521,1.521,0,0,0-.6,1.267A1.653,1.653,0,0,0,2.4,6.167,8.283,8.283,0,0,0,4.866,7.244,4.547,4.547,0,0,1,7.1,8.589,3.364,3.364,0,0,1,7.822,10.8,3.118,3.118,0,0,1,7,13.056a4.115,4.115,0,0,1-2.423,1.1V16Z" fill="#6d6d6d"/>
  </g>
</svg>
