<svg xmlns="http://www.w3.org/2000/svg" xmlns:xlink="http://www.w3.org/1999/xlink" width="16" height="16" viewBox="0 0 16 16">
  <defs>
    <clipPath id="clip-path">
      <rect id="Rectangle_539" data-name="Rectangle 539" width="16" height="16" transform="translate(0 0)" fill="#6d6d6d"/>
    </clipPath>
  </defs>
  <g id="Group_621" data-name="Group 621" transform="translate(0 0)">
    <g id="Group_381" data-name="Group 381" clip-path="url(#clip-path)">
      <path id="Path_273" data-name="Path 273" d="M6.84,14.72a5.191,5.191,0,0,1,2.45-2.43,6.676,6.676,0,0,1,2.59-.65,4.749,4.749,0,0,1,.85.07q.39.07.81.19a7.5,7.5,0,0,0,.89-1.76A6.217,6.217,0,0,0,14.8,8a6.559,6.559,0,0,0-1.98-4.82A6.559,6.559,0,0,0,8,1.2,6.559,6.559,0,0,0,3.18,3.18,6.559,6.559,0,0,0,1.2,8a6.589,6.589,0,0,0,1.12,3.68,7.767,7.767,0,0,1,1.7-.64,7.42,7.42,0,0,1,1.84-.24,7.684,7.684,0,0,1,1.05.07,4.636,4.636,0,0,1,.95.23,5.969,5.969,0,0,0-.7.43,4.669,4.669,0,0,0-.58.49c-.133-.013-.26-.02-.38-.02H5.86a6.283,6.283,0,0,0-1.47.19,6.844,6.844,0,0,0-1.37.47,7.272,7.272,0,0,0,1.75,1.35,6.066,6.066,0,0,0,2.07.71M8,16a7.736,7.736,0,0,1-3.1-.63A8.058,8.058,0,0,1,.63,11.1,7.736,7.736,0,0,1,0,8,7.716,7.716,0,0,1,.63,4.89,8.087,8.087,0,0,1,4.9.63,7.736,7.736,0,0,1,8,0a7.716,7.716,0,0,1,3.11.63,8.117,8.117,0,0,1,4.26,4.26A7.716,7.716,0,0,1,16,8a7.736,7.736,0,0,1-.63,3.1,8.087,8.087,0,0,1-4.26,4.27A7.716,7.716,0,0,1,8,16" fill="#6d6d6d"/>
      <path id="Path_274" data-name="Path 274" d="M7.81,4.49a2.656,2.656,0,0,0-1.95-.81,2.656,2.656,0,0,0-1.95.81A2.656,2.656,0,0,0,3.1,6.44a2.656,2.656,0,0,0,.81,1.95,2.656,2.656,0,0,0,1.95.81,2.656,2.656,0,0,0,1.95-.81,2.656,2.656,0,0,0,.81-1.95,2.656,2.656,0,0,0-.81-1.95M6.97,7.54a1.557,1.557,0,0,1-2.21,0l-.008-.008a1.557,1.557,0,0,1,.008-2.2A1.563,1.563,0,1,1,6.97,7.54" fill="#6d6d6d"/>
      <path id="Path_275" data-name="Path 275" d="M11.88,10.12A2.117,2.117,0,0,1,9.76,8.006V8a2.121,2.121,0,1,1,3.62,1.5,2.044,2.044,0,0,1-1.5.62" fill="#6d6d6d"/>
    </g>
  </g>
</svg>
