<svg id="Group_272" data-name="Group 272" xmlns="http://www.w3.org/2000/svg" xmlns:xlink="http://www.w3.org/1999/xlink" width="13.6" height="16" viewBox="0 0 13.6 16">
  <defs>
    <clipPath id="clip-path">
      <rect id="Rectangle_349" data-name="Rectangle 349" width="13.6" height="16" fill="#006800" stroke="rgba(0,0,0,0)" stroke-width="1"/>
    </clipPath>
  </defs>
  <g id="Group_271" data-name="Group 271" clip-path="url(#clip-path)">
    <path id="Path_193" data-name="Path 193" d="M1.2,16a1.151,1.151,0,0,1-.84-.36A1.151,1.151,0,0,1,0,14.8V2.74H1.2V14.8h9.48V16Zm2.4-2.4a1.151,1.151,0,0,1-.84-.36,1.151,1.151,0,0,1-.36-.84V1.2A1.151,1.151,0,0,1,2.76.36,1.151,1.151,0,0,1,3.6,0h8.8a1.151,1.151,0,0,1,.84.36,1.151,1.151,0,0,1,.36.84V12.4a1.23,1.23,0,0,1-1.2,1.2Zm0-1.2h8.8V1.2H3.6Zm0,0v0Z" fill="#006800" stroke="rgba(0,0,0,0)" stroke-width="1"/>
  </g>
</svg>
