<svg xmlns="http://www.w3.org/2000/svg" width="22.047" height="20.785" viewBox="0 0 22.047 20.785">
  <g id="Group_1623" data-name="Group 1623" transform="translate(-210.259 -210.001)">
    <path id="Path_1652" data-name="Path 1652" d="M129.744,128.594H111.706v-17h8.015V109.7H109.7v20.785h22.047v-7.559h-2Z" transform="translate(100.559 100.301)"/>
    <path id="Path_1653" data-name="Path 1653" d="M224.391,123.069h1.995a4.993,4.993,0,1,1,9.982,0h1.995a7.226,7.226,0,0,0-4.011-6.513,4.169,4.169,0,0,0,1.018-2.742,3.994,3.994,0,1,0-7.984,0,4.158,4.158,0,0,0,1.018,2.742A7.229,7.229,0,0,0,224.391,123.069Zm6.986-11.311a2.057,2.057,0,1,1-1.995,2.056A2.028,2.028,0,0,1,231.376,111.759ZM219.4,113.814h5.987v2.056H219.4Zm0,11.314h15.966v2.056H219.4Zm0-7.2h3.992v2.056H219.4Z" transform="translate(-6.057 100.301)"/>
  </g>
</svg>
