<svg xmlns="http://www.w3.org/2000/svg" width="19.68" height="13.776" viewBox="0 0 19.68 13.776">
  <path id="Path_1537" data-name="Path 1537" d="M8.888,11.888A3.444,3.444,0,1,0,5.444,8.444,3.448,3.448,0,0,0,8.888,11.888Zm0-4.92A1.476,1.476,0,1,1,7.412,8.444,1.474,1.474,0,0,1,8.888,6.968Zm.049,9.84H4.726a10.208,10.208,0,0,1,4.162-.984c.108,0,.226.01.335.01a4.506,4.506,0,0,1,1.614-1.781,11.538,11.538,0,0,0-1.948-.2C6.585,13.856,2,15.007,2,17.3v1.476H8.888V17.3A2.69,2.69,0,0,1,8.937,16.808Zm7.331-2.46c-1.811,0-5.412.994-5.412,2.952v1.476H21.68V17.3C21.68,15.342,18.078,14.348,16.268,14.348Zm1.191-1.791a2.46,2.46,0,1,0-2.381,0,2.408,2.408,0,0,0,2.381,0Z" transform="translate(-2 -5)"/>
</svg>
