<svg xmlns="http://www.w3.org/2000/svg" width="18" height="18.711" viewBox="0 0 18 18.711">
  <path id="auction" d="M.738,18.712a.691.691,0,0,1-.522-.228A.753.753,0,0,1,0,17.949a.739.739,0,0,1,.763-.763h10.71a.693.693,0,0,1,.522.228.755.755,0,0,1,.216.535.739.739,0,0,1-.763.763ZM4.579,12.25,1.068,8.739A1.5,1.5,0,0,1,.623,7.671,1.409,1.409,0,0,1,1.043,6.6l.738-.763,5.7,5.647-.763.763a1.449,1.449,0,0,1-1.068.433,1.452,1.452,0,0,1-1.069-.433M12.11,6.857l-5.648-5.7L7.225.42A1.411,1.411,0,0,1,8.293,0,1.5,1.5,0,0,1,9.362.446l3.511,3.511a1.452,1.452,0,0,1,.433,1.068,1.452,1.452,0,0,1-.433,1.069Zm4.6,10.3-13.1-13.1L4.681,2.99,17.808,16.117a.666.666,0,0,1,.191.522.752.752,0,0,1-.217.522.737.737,0,0,1-1.068,0" transform="translate(0 -0.001)" fill="#0a0a0a"/>
</svg>
