<svg xmlns="http://www.w3.org/2000/svg" width="19.684" height="22" viewBox="0 0 19.684 22">
  <path id="home-_1393_" data-name="home-[#1393]" d="M302.224,578.772c0,.639-.551.912-1.23.912h-1.23c-.679,0-1.23-.273-1.23-.912v-1.158a2.6,2.6,0,0,0-2.461-2.561h-2.461a2.6,2.6,0,0,0-2.461,2.561v1.158c0,.639-.551.912-1.23.912h-1.23c-.679,0-1.23-.273-1.23-.912v-9.336a.566.566,0,0,1,.18-.41l6.32-5.947a1.284,1.284,0,0,1,1.74,0l6.344,5.97a.565.565,0,0,1,.18.409Zm2.461-9.943a1.128,1.128,0,0,0-.358-.818l-7.749-7.329a2.572,2.572,0,0,0-3.482-.007l-7.733,7.254a1.125,1.125,0,0,0-.362.82V579.93a2.2,2.2,0,0,0,2.461,2.07h3.691a2.2,2.2,0,0,0,2.461-2.07v-1.158a1.233,1.233,0,0,1,2.461,0v1.158a2.2,2.2,0,0,0,2.461,2.07h3.691a2.2,2.2,0,0,0,2.461-2.07Z" transform="translate(-285 -560)" fill-rule="evenodd"/>
</svg>
