<svg xmlns="http://www.w3.org/2000/svg" width="22.899" height="25.458" viewBox="0 0 22.899 25.458">
  <path id="Path_1659" data-name="Path 1659" d="M2.5,24a2.414,2.414,0,0,1-1.775-.728A2.414,2.414,0,0,1,0,21.5v-2.79H4.194V0L5.923,1.205,7.7,0,9.483,1.205,11.264,0l1.779,1.205L14.824,0l1.781,1.205L18.389,0,20.17,1.205,21.9,0V21.5A2.488,2.488,0,0,1,19.4,24Zm16.908-1.048a1.394,1.394,0,0,0,1.027-.413,1.409,1.409,0,0,0,.414-1.042V1.886H5.243V18.707H17.968V21.5a1.412,1.412,0,0,0,.414,1.042,1.394,1.394,0,0,0,1.029.413M7.336,5.565h7.284V6.613H7.336Zm0,4.329h7.284v1.048H7.336ZM17.762,6.98a.882.882,0,0,1-.624-1.514.882.882,0,1,1,1.248,1.247.859.859,0,0,1-.624.267m0,4.237a.911.911,0,1,1,.624-.267.859.859,0,0,1-.624.267M2.476,22.952H16.921v-3.2H1.048V21.5a1.4,1.4,0,0,0,.418,1.042,1.386,1.386,0,0,0,1.011.413m-1.429,0v0Z" transform="translate(0.5 0.958)" stroke="#000" stroke-width="1"/>
</svg>
