<svg xmlns="http://www.w3.org/2000/svg" width="16" height="2.4" viewBox="0 0 16 2.4">
  <path id="more_option" data-name="more option" d="M1.2,3A1.145,1.145,0,0,1,.35,2.646,1.161,1.161,0,0,1,0,1.8,1.144,1.144,0,0,1,.353.95,1.167,1.167,0,0,1,1.2.6,1.149,1.149,0,0,1,2.05.954a1.165,1.165,0,0,1,.35.85,1.145,1.145,0,0,1-.354.846A1.167,1.167,0,0,1,1.2,3M8,3a1.145,1.145,0,0,1-.846-.354A1.161,1.161,0,0,1,6.8,1.8,1.144,1.144,0,0,1,7.153.95,1.167,1.167,0,0,1,8,.6,1.149,1.149,0,0,1,8.85.954a1.165,1.165,0,0,1,.35.85,1.145,1.145,0,0,1-.354.846A1.167,1.167,0,0,1,8,3m6.8,0a1.145,1.145,0,0,1-.846-.354,1.161,1.161,0,0,1-.35-.85A1.144,1.144,0,0,1,13.953.95,1.167,1.167,0,0,1,14.8.6a1.149,1.149,0,0,1,.847.354A1.165,1.165,0,0,1,16,1.8a1.145,1.145,0,0,1-.354.846A1.167,1.167,0,0,1,14.8,3" transform="translate(0 -0.6)" fill="#6d6d6d"/>
</svg>
