<svg xmlns="http://www.w3.org/2000/svg" width="22.996" height="23" viewBox="0 0 22.996 23">
  <path id="Path_1658" data-name="Path 1658" d="M12.738,21.708a.944.944,0,0,1-1.364,0L.307,10.642A1.01,1.01,0,0,1,.071,10.3,1.039,1.039,0,0,1,0,9.91V.939A.906.906,0,0,1,.271.272.909.909,0,0,1,.939,0H9.909a1.154,1.154,0,0,1,.368.063,1.14,1.14,0,0,1,.355.2L21.663,11.29a1.054,1.054,0,0,1,.332.736.93.93,0,0,1-.286.712Zm-.651-.641,8.981-8.994L9.921.939H.939V9.91L12.087,21.068M4.069,5.159a1.046,1.046,0,0,0,.776-.329,1.088,1.088,0,0,0,.32-.786,1.063,1.063,0,0,0-.317-.776,1.047,1.047,0,0,0-.774-.32,1.088,1.088,0,0,0-.8.317,1.05,1.05,0,0,0-.321.774,1.1,1.1,0,0,0,.318.788,1.057,1.057,0,0,0,.8.332" transform="translate(0.501 0.5)" fill="#016815" stroke="#016815" stroke-width="1"/>
</svg>
