<svg xmlns="http://www.w3.org/2000/svg" width="22.112" height="25" viewBox="0 0 22.112 25">
  <path id="Path_1660" data-name="Path 1660" d="M19.285,24a1.818,1.818,0,0,0,1.827-1.827V4.715a1.818,1.818,0,0,0-1.827-1.827h-6.8A2.043,2.043,0,0,0,12.259.923a2.032,2.032,0,0,0-3.4,0A2.04,2.04,0,0,0,8.63,2.888h-6.8a1.762,1.762,0,0,0-1.293.533A1.761,1.761,0,0,0,0,4.715V22.173a1.759,1.759,0,0,0,.533,1.294A1.762,1.762,0,0,0,1.826,24ZM10.557,2.974a.959.959,0,0,1-.991-.989.974.974,0,0,1,.281-.7,1.006,1.006,0,0,1,1.419,0,.972.972,0,0,1,.279.7.956.956,0,0,1-.988.989M20.1,22.12a14.92,14.92,0,0,0-4.292-2.871,12.752,12.752,0,0,0-5.246-1.075,12.76,12.76,0,0,0-5.247,1.075,14.935,14.935,0,0,0-4.3,2.871V4.715a.774.774,0,0,1,.255-.558A.774.774,0,0,1,1.826,3.9H19.285a.78.78,0,0,1,.559.254.775.775,0,0,1,.253.558Zm-9.569-6.958A3.9,3.9,0,0,1,6.6,11.231,3.9,3.9,0,0,1,10.528,7.3a3.9,3.9,0,0,1,3.93,3.93,3.9,3.9,0,0,1-3.93,3.931m8.77,7.823H1.788v-.221a13.459,13.459,0,0,1,4.16-2.686,12.408,12.408,0,0,1,9.194-.012A13.449,13.449,0,0,1,19.3,22.714Zm-8.782-8.838a2.909,2.909,0,0,0,2.928-2.916,2.909,2.909,0,0,0-2.916-2.915,2.918,2.918,0,0,0-2.915,2.9,2.916,2.916,0,0,0,2.9,2.928" transform="translate(0.5 0.5)" fill="#0a0a0a" stroke="#000" stroke-width="1"/>
</svg>
