<svg xmlns="http://www.w3.org/2000/svg" width="25" height="25" viewBox="0 0 25 25">
  <path id="Path_1656" data-name="Path 1656" d="M8.566,13.333A3.828,3.828,0,0,1,5.76,12.18,3.806,3.806,0,0,1,4.6,9.378,3.859,3.859,0,0,1,5.756,6.547a3.809,3.809,0,0,1,2.8-1.157A3.944,3.944,0,0,1,12.52,9.37a3.944,3.944,0,0,1-3.954,3.963m-.005-1.025a2.815,2.815,0,0,0,2.086-.861,2.849,2.849,0,0,0,.848-2.073,2.88,2.88,0,0,0-.848-2.1,2.815,2.815,0,0,0-2.086-.861,2.814,2.814,0,0,0-2.085.861,2.88,2.88,0,0,0-.848,2.1,2.849,2.849,0,0,0,.848,2.073,2.814,2.814,0,0,0,2.085.861m9.649,2.969A3.246,3.246,0,0,1,14.933,12a3.291,3.291,0,0,1,5.6-2.327A3.167,3.167,0,0,1,21.487,12a3.244,3.244,0,0,1-3.277,3.277m-7.656,7.641a8.342,8.342,0,0,1,3.737-3.563,9.81,9.81,0,0,1,3.919-1.006,8.3,8.3,0,0,1,1.276.091q.585.09,1.183.24a10.956,10.956,0,0,0,1.612-2.886A10.242,10.242,0,0,0,22.974,12a10.587,10.587,0,0,0-3.191-7.783A10.587,10.587,0,0,0,12,1.026,10.587,10.587,0,0,0,4.217,4.217,10.587,10.587,0,0,0,1.026,12a10.427,10.427,0,0,0,.564,3.45,12.5,12.5,0,0,0,1.482,2.965,10.13,10.13,0,0,1,2.7-1.041,11.905,11.905,0,0,1,2.784-.4,9.542,9.542,0,0,1,1.206.079,4.817,4.817,0,0,1,.948.191,4.249,4.249,0,0,0-.679.434,5.549,5.549,0,0,0-.505.432,2.669,2.669,0,0,0-.48-.084C8.868,18.009,8.7,18,8.561,18a10.613,10.613,0,0,0-2.514.355A10.165,10.165,0,0,0,3.7,19.2a10.879,10.879,0,0,0,3.122,2.48,11.554,11.554,0,0,0,3.732,1.235M12.02,24a11.71,11.71,0,0,1-4.688-.945A12.038,12.038,0,0,1,.945,16.683,11.663,11.663,0,0,1,0,12,11.641,11.641,0,0,1,.945,7.328,12.033,12.033,0,0,1,7.317.946,11.647,11.647,0,0,1,12,0a11.641,11.641,0,0,1,4.668.945,12.029,12.029,0,0,1,6.382,6.377A11.6,11.6,0,0,1,24,11.98a11.71,11.71,0,0,1-.945,4.688,12.018,12.018,0,0,1-6.377,6.386A11.6,11.6,0,0,1,12.02,24" transform="translate(0.5 0.5)" fill="#016815" stroke="#016815" stroke-width="1"/>
</svg>
