<svg xmlns="http://www.w3.org/2000/svg" width="15.31" height="16" viewBox="0 0 15.31 16">
  <path id="Path_863" data-name="Path 863" d="M6.3,16l-.345-2.552a6.152,6.152,0,0,1-1.173-.517,5.288,5.288,0,0,1-1.08-.77L1.356,13.218,0,10.805,2.069,9.264q-.046-.3-.081-.62a5.838,5.838,0,0,1-.034-.621,5.635,5.635,0,0,1,.034-.6q.034-.321.081-.689L0,5.172,1.356,2.828,3.678,3.839a8.257,8.257,0,0,1,1.1-.759,5.306,5.306,0,0,1,1.15-.5L6.3,0H9.011l.345,2.575a7.945,7.945,0,0,1,1.15.528,6.494,6.494,0,0,1,1.034.736l2.437-1.011L15.31,5.172l-2.161,1.61a3.471,3.471,0,0,1,.115.643c.015.2.023.391.023.575a4.838,4.838,0,0,1-.034.552q-.035.3-.1.689l2.138,1.564-1.356,2.413-2.391-1.08a8.184,8.184,0,0,1-1.069.793,4.352,4.352,0,0,1-1.115.494L9.011,16ZM7.586,9.954A1.923,1.923,0,0,0,9.54,8,1.923,1.923,0,0,0,7.586,6.046a1.9,1.9,0,0,0-1.379.563A1.872,1.872,0,0,0,5.632,8a1.872,1.872,0,0,0,.575,1.391,1.9,1.9,0,0,0,1.379.563" fill="#6d6d6d"/>
</svg>
