<svg width="14" height="16" viewBox="0 0 14 16" fill="none" xmlns="http://www.w3.org/2000/svg">
<g clip-path="url(#clip0_117_3688)">
<mask id="mask0_117_3688" style="mask-type:luminance" maskUnits="userSpaceOnUse" x="0" y="0" width="14" height="16">
<path d="M13.6 0H0V16H13.6V0Z" fill="white"/>
</mask>
<g mask="url(#mask0_117_3688)">
<path d="M1.20001 16C1.04283 16.0005 0.887213 15.9689 0.742745 15.9069C0.598278 15.845 0.468022 15.7542 0.360006 15.64C0.245826 15.532 0.154979 15.4017 0.0930641 15.2573C0.0311493 15.1128 -0.000520623 14.9572 6.47286e-06 14.8V2.74001H1.20001V14.8H10.68V16H1.20001ZM3.60001 13.6C3.44283 13.6005 3.28721 13.5689 3.14275 13.5069C2.99828 13.445 2.86802 13.3542 2.76001 13.24C2.64583 13.132 2.55498 13.0017 2.49306 12.8573C2.43115 12.7128 2.39948 12.5572 2.40001 12.4V1.20001C2.39948 1.04283 2.43115 0.887213 2.49306 0.742745C2.55498 0.598278 2.64583 0.468022 2.76001 0.360006C2.86802 0.245826 2.99828 0.154979 3.14275 0.0930641C3.28721 0.0311493 3.44283 -0.000520623 3.60001 6.47286e-06H12.4C12.5572 -0.000520623 12.7128 0.0311493 12.8573 0.0930641C13.0017 0.154979 13.132 0.245826 13.24 0.360006C13.3542 0.468022 13.445 0.598278 13.5069 0.742745C13.5689 0.887213 13.6005 1.04283 13.6 1.20001V12.4C13.5924 12.7159 13.4635 13.0167 13.2401 13.2401C13.0167 13.4635 12.7159 13.5924 12.4 13.6H3.60001ZM3.60001 12.4H12.4V1.20001H3.60001V12.4Z" fill="black"/>
</g>
</g>
<defs>
<clipPath id="clip0_117_3688">
<rect width="13.6" height="16" fill="white"/>
</clipPath>
</defs>
</svg>
