<svg width="16" height="19" viewBox="0 0 16 19" fill="none" xmlns="http://www.w3.org/2000/svg">
<g clip-path="url(#clip0_117_3688)">
<mask id="mask0_117_3688" style="mask-type:luminance" maskUnits="userSpaceOnUse" x="0" y="0" width="16" height="19">
<path d="M0.5 0.5H15.5V18.5H0.5V0.5Z" fill="white" stroke="white"/>
</mask>
<g mask="url(#mask0_117_3688)">
<path d="M1.41177 19C1.22686 19.0006 1.04378 18.963 0.873818 18.8895C0.703856 18.816 0.550614 18.7081 0.423537 18.5725C0.289207 18.4442 0.182328 18.2896 0.109487 18.118C0.0366462 17.9464 -0.000612497 17.7617 7.61513e-06 17.575V3.25376H1.41177V17.575H12.5647V19H1.41177ZM5.2353 15.15C5.05039 15.1506 4.86731 15.113 4.69735 15.0395C4.52739 14.966 4.37414 14.8581 4.24707 14.7225C4.11274 14.5942 4.00586 14.4396 3.93302 14.268C3.86018 14.0964 3.82292 13.9117 3.82354 13.725V2.42501C3.82292 2.23836 3.86018 2.05357 3.93302 1.88201C4.00586 1.71045 4.11274 1.55578 4.24707 1.42751C4.37414 1.29192 4.52739 1.18404 4.69735 1.11051C4.86731 1.03699 5.05039 0.999382 5.2353 1.00001H13.5882C13.7732 0.999382 13.9562 1.03699 14.1262 1.11051C14.2962 1.18404 14.4494 1.29192 14.5765 1.42751C14.7108 1.55578 14.8177 1.71045 14.8905 1.88201C14.9634 2.05357 15.0006 2.23836 15 2.42501V13.725C14.991 14.1001 14.8394 14.4573 14.5766 14.7226C14.3138 14.9879 13.9598 15.141 13.5882 15.15H5.2353ZM5.2353 13.725H13.5882V2.42501H5.2353V13.725Z" fill="black" stroke="black"/>
</g>
</g>
<defs>
<clipPath id="clip0_117_3688">
<rect width="16" height="19" fill="white"/>
</clipPath>
</defs>
</svg>
