<svg xmlns="http://www.w3.org/2000/svg" width="8.003" height="8" viewBox="0 0 8.003 8">
  <path id="Path_1718" data-name="Path 1718" d="M.6,8a.586.586,0,0,1-.428-.175A.585.585,0,0,1,0,7.4V1.635a.585.585,0,0,1,.175-.428A.586.586,0,0,1,.6,1.032h3.79L1.674,3.769V6.325H4.231L6.969,3.591V7.4a.6.6,0,0,1-.6.6ZM2.614,5.387V4.147L5.608,1.152,6.859,2.37,3.852,5.387ZM7.26,1.969,6.01.751,6.6.164A.558.558,0,0,1,7.017,0a.6.6,0,0,1,.429.183l.379.373A.614.614,0,0,1,8,.99a.563.563,0,0,1-.189.422l-.553.557" transform="translate(0.001 0)" fill="#6d6d6d"/>
</svg>
