<svg width="60" height="58" viewBox="0 0 60 58" fill="none" xmlns="http://www.w3.org/2000/svg">
<path d="M56.6389 8.48975C55.8496 8.48975 55.0263 8.74875 54.4251 9.34075L27.5785 35.8389C26.786 36.619 25.9905 36.4741 25.3677 35.5553L16.13 21.9269C15.1865 20.5363 13.2132 20.1478 11.7979 21.0759C10.3858 22.004 9.9911 23.9434 10.9346 25.334L20.1692 38.9623C22.9504 43.06 28.3678 43.5812 31.9105 40.097L58.8527 13.6944C60.0521 12.5104 60.0521 10.5247 58.8527 9.34075C58.2515 8.74875 57.4252 8.48975 56.6389 8.48975Z" fill="#114C07"/>
<path fill-rule="evenodd" clip-rule="evenodd" d="M58 29C58 45.0163 45.0163 58 29 58C12.9837 58 0 45.0163 0 29C0 12.9837 12.9837 0 29 0C37.5169 0 45.1763 3.67148 50.4818 9.51807L46.9412 13.0586C42.5451 8.11462 36.1363 5 29 5C15.7452 5 5 15.7452 5 29C5 42.2548 15.7452 53 29 53C42.2548 53 53 42.2548 53 29C53 26.9977 52.7548 25.0527 52.2928 23.1933L56.3011 19.1966C57.4008 22.2587 58 25.5594 58 29Z" fill="#114C07"/>
</svg>
